<svg xmlns="http://www.w3.org/2000/svg" xmlns:xlink="http://www.w3.org/1999/xlink" xml:space="preserve" viewBox="0 0 16 16">
  <defs>
    <path id="a" d="M1 3.9h14V12H1z"/>
  </defs>
  <clipPath id="b">
    <use xlink:href="#a" overflow="visible"/>
  </clipPath>
  <g clip-path="url(#b)">
    <path fill="#f1f0f1" d="M11.6 3.9c-.7 0-1.3.3-1.8 1-.5.8-.9 1.9-1.2 2.9L8 9.3c-.2-.5-.4-1-.6-1.4-.3-1.1-.7-2.2-1.3-2.9-.5-.7-1.1-1-1.8-1H1v.9c.2 0 .6.1 1 .7.5.7.8 1.7 1.2 2.6.7 1.9 1.4 3.9 3.1 3.9.6 0 1.2-.3 1.7-.9.5.6 1 .9 1.7.9 1.6 0 2.4-2 3.1-3.9.4-1 .7-2 1.2-2.7.4-.6.8-.7 1-.7v-.9h-3.4zm-5.3 7.3c-1 0-1.6-1.7-2.2-3.3-.4-1.1-.8-2.2-1.3-2.9 0-.1-.1-.1-.1-.2h1.7c.2 0 .6.1 1 .7.5.7.8 1.7 1.2 2.6.3.7.6 1.5.9 2.1-.5.9-.9 1-1.2 1zM13.2 5c-.5.8-.9 1.8-1.3 2.9-.6 1.6-1.2 3.3-2.2 3.3-.3 0-.7-.1-1.2-.9.3-.6.6-1.4.9-2.2.4-1 .7-2 1.2-2.7.4-.6.8-.7 1-.7h1.7c.1.1 0 .2-.1.3z"/>
  </g>
</svg>
