<?xml version="1.0" encoding="UTF-8"?>
<svg id="Layer_1" data-name="Layer 1" xmlns="http://www.w3.org/2000/svg" xmlns:xlink="http://www.w3.org/1999/xlink" viewBox="0 0 16 16">
  <defs>
    <style>
      .cls-1 {
        clip-path: url(#clippath);
      }

      .cls-2 {
        fill: none;
      }

      .cls-2, .cls-3 {
        stroke-width: 0px;
      }

      .cls-3 {
        fill: #111414;
      }
    </style>
    <clipPath id="clippath">
      <rect class="cls-2" x="1" y="3.94" width="14" height="8.12"/>
    </clipPath>
  </defs>
  <g class="cls-1">
    <path class="cls-3" d="m11.64,3.94c-.67,0-1.26.35-1.76,1.04-.54.75-.93,1.82-1.32,2.86-.18.49-.37.99-.56,1.45-.2-.46-.38-.96-.56-1.45-.38-1.04-.78-2.12-1.32-2.86-.5-.69-1.09-1.04-1.76-1.04H1v.89c.24,0,.6.07,1.04.68.47.65.84,1.66,1.2,2.65.71,1.92,1.44,3.91,3.08,3.91.64,0,1.19-.31,1.68-.94.49.63,1.04.94,1.68.94,1.64,0,2.37-1.99,3.08-3.91.36-.98.74-2,1.2-2.65.44-.61.8-.68,1.04-.68v-.89h-3.36,0Zm-5.32,7.23c-1.02,0-1.64-1.69-2.24-3.33-.38-1.04-.78-2.12-1.32-2.86-.04-.05-.08-.1-.12-.15h1.72c.24,0,.6.07,1.04.68.47.65.84,1.66,1.2,2.65.27.74.55,1.51.89,2.15-.49.77-.9.87-1.17.87h0Zm6.92-6.19c-.54.75-.93,1.82-1.32,2.87-.6,1.63-1.22,3.32-2.24,3.32-.27,0-.68-.09-1.17-.87.33-.64.61-1.41.89-2.15.36-.99.74-2,1.2-2.65.44-.61.8-.68,1.04-.68h1.72s-.08.1-.12.15h0Z"/>
  </g>
</svg>