<?xml version="1.0" encoding="utf-8"?>
<!-- Generator: Adobe Illustrator 27.9.0, SVG Export Plug-In . SVG Version: 6.00 Build 0)  -->
<svg version="1.1" id="Layer_1" xmlns="http://www.w3.org/2000/svg" xmlns:xlink="http://www.w3.org/1999/xlink" x="0px" y="0px"
	 viewBox="0 0 16 16" style="enable-background:new 0 0 16 16;" xml:space="preserve">
<style type="text/css">
	.st0{clip-path:url(#SVGID_00000101799737835081300490000010164374447524173704_);}
	.st1{fill:#F1F0F1;}
</style>
<g>
	<defs>
		<rect id="SVGID_1_" x="1" y="3.9" width="14" height="8.1"/>
	</defs>
	<clipPath id="SVGID_00000052103370697508697250000002786547111936429463_">
		<use xlink:href="#SVGID_1_"  style="overflow:visible;"/>
	</clipPath>
	<g style="clip-path:url(#SVGID_00000052103370697508697250000002786547111936429463_);">
		<path class="st1" d="M11.6,3.9c-0.7,0-1.3,0.3-1.8,1C9.3,5.7,8.9,6.8,8.6,7.8C8.4,8.3,8.2,8.8,8,9.3c-0.2-0.5-0.4-1-0.6-1.4
			C7.1,6.8,6.7,5.7,6.1,5c-0.5-0.7-1.1-1-1.8-1H1v0.9c0.2,0,0.6,0.1,1,0.7c0.5,0.7,0.8,1.7,1.2,2.6c0.7,1.9,1.4,3.9,3.1,3.9
			c0.6,0,1.2-0.3,1.7-0.9c0.5,0.6,1,0.9,1.7,0.9c1.6,0,2.4-2,3.1-3.9c0.4-1,0.7-2,1.2-2.7c0.4-0.6,0.8-0.7,1-0.7V3.9H11.6
			C11.6,3.9,11.6,3.9,11.6,3.9z M6.3,11.2c-1,0-1.6-1.7-2.2-3.3C3.7,6.8,3.3,5.7,2.8,5c0-0.1-0.1-0.1-0.1-0.2h1.7
			c0.2,0,0.6,0.1,1,0.7c0.5,0.7,0.8,1.7,1.2,2.6c0.3,0.7,0.6,1.5,0.9,2.1C7,11.1,6.6,11.2,6.3,11.2L6.3,11.2L6.3,11.2z M13.2,5
			c-0.5,0.8-0.9,1.8-1.3,2.9c-0.6,1.6-1.2,3.3-2.2,3.3c-0.3,0-0.7-0.1-1.2-0.9c0.3-0.6,0.6-1.4,0.9-2.2c0.4-1,0.7-2,1.2-2.7
			c0.4-0.6,0.8-0.7,1-0.7h1.7C13.4,4.8,13.3,4.9,13.2,5L13.2,5L13.2,5z"/>
	</g>
</g>
</svg>
