<?xml version="1.0" encoding="UTF-8"?>
<svg xmlns="http://www.w3.org/2000/svg" xmlns:xlink="http://www.w3.org/1999/xlink" width="16px" height="px" viewBox="0 0 15 9" version="1.1">
<defs>
<clipPath id="clip1">
  <path d="M 0 0 L 15 0 L 15 8.976562 L 0 8.976562 Z M 0 0 "/>
</clipPath>
</defs>
<g id="surface1">
<g clip-path="url(#clip1)" clip-rule="nonzero">
<path style=" stroke:none;fill-rule:nonzero;fill:rgb(6.666667%,7.843137%,7.843137%);fill-opacity:1;" d="M 11.398438 0 C 10.683594 0 10.050781 0.386719 9.515625 1.15625 C 8.9375 1.976562 8.511719 3.167969 8.101562 4.320312 C 7.910156 4.863281 7.710938 5.417969 7.5 5.921875 C 7.285156 5.414062 7.089844 4.859375 6.894531 4.316406 C 6.484375 3.164062 6.058594 1.976562 5.484375 1.152344 C 4.949219 0.386719 4.316406 0 3.601562 0 L 0 0 L 0 0.984375 C 0.253906 0.984375 0.644531 1.0625 1.113281 1.730469 C 1.613281 2.445312 2.015625 3.570312 2.402344 4.660156 C 3.160156 6.78125 3.941406 8.976562 5.699219 8.976562 C 6.382812 8.976562 6.976562 8.632812 7.5 7.9375 C 8.023438 8.636719 8.617188 8.976562 9.296875 8.976562 C 11.054688 8.976562 11.839844 6.78125 12.59375 4.65625 C 12.984375 3.570312 13.386719 2.445312 13.882812 1.730469 C 14.351562 1.0625 14.742188 0.984375 15 0.984375 L 15 0 Z M 5.699219 7.992188 C 4.605469 7.992188 3.941406 6.125 3.296875 4.316406 C 2.886719 3.164062 2.460938 1.976562 1.886719 1.152344 C 1.84375 1.09375 1.800781 1.039062 1.761719 0.984375 L 3.597656 0.984375 C 3.851562 0.984375 4.246094 1.0625 4.710938 1.730469 C 5.210938 2.445312 5.613281 3.570312 6 4.65625 C 6.292969 5.476562 6.597656 6.324219 6.949219 7.035156 C 6.425781 7.890625 5.988281 7.992188 5.699219 7.992188 Z M 13.113281 1.15625 C 12.539062 1.976562 12.113281 3.167969 11.703125 4.320312 C 11.058594 6.128906 10.394531 7.996094 9.300781 7.996094 C 9.007812 7.996094 8.570312 7.890625 8.046875 7.035156 C 8.402344 6.324219 8.707031 5.480469 9 4.660156 C 9.386719 3.570312 9.789062 2.445312 10.285156 1.730469 C 10.753906 1.0625 11.144531 0.984375 11.402344 0.984375 L 13.238281 0.984375 C 13.195312 1.039062 13.15625 1.097656 13.113281 1.15625 Z M 13.113281 1.15625 "/>
</g>
</g>
</svg>
