<?xml version="1.0" encoding="UTF-8"?><svg id="Layer_1" xmlns="http://www.w3.org/2000/svg" viewBox="0 0 1980.75 499.67"><defs><style>.cls-1{fill:#fff;}</style></defs><g><path class="cls-1" d="M870.84,148.45h37.77l27.07,113.64h1.36l29.87-113.64h32.34l29.79,113.88h1.44l27.07-113.88h37.78l-46.8,163.56h-33.7l-31.15-106.94h-1.28l-31.07,106.94h-33.7l-46.8-163.56Z"/><path class="cls-1" d="M1111.82,156.28c0-9.42,8.3-17.17,18.37-17.17s18.45,7.75,18.45,17.17-8.3,17.25-18.45,17.25-18.37-7.75-18.37-17.25Zm1.28,33.06h34.02v122.67h-34.02v-122.67Z"/><path class="cls-1" d="M1208.28,312.01h-34.02v-122.67h32.43v21.64h1.44c5.51-14.3,18.69-23.24,36.9-23.24,25.55,0,42.33,17.57,42.33,46.16v78.1h-34.02v-72.04c.08-15.01-8.14-23.96-21.8-23.96s-23.16,9.26-23.24,25.08v70.92Z"/><path class="cls-1" d="M1313.28,326.38l31.47-4.23c2.8,7.43,10.38,13.98,25.4,13.98s25.56-6.55,25.56-23.4v-22.44h-1.44c-4.47,10.14-15.41,19.97-34.98,19.97-27.63,0-49.75-19.01-49.75-59.82s22.76-62.69,49.68-62.69c20.52,0,30.51,12.22,35.06,22.2h1.28v-20.6h33.78v123.87c0,31.38-24.92,47.36-59.98,47.36-33.06,0-51.99-14.85-56.06-34.18Zm82.58-76.11c0-21.48-9.26-35.46-25.8-35.46s-25.79,14.62-25.79,35.46,9.1,34.42,25.79,34.42,25.8-12.78,25.8-34.42Z"/></g><g><path class="cls-1" d="M654.34,312.01c-16.01,0-29.32-8.99-40.67-27.5-8.65-14.1-15.4-32.42-21.92-50.14-6.95-18.89-14.12-38.35-22.87-50.47-7.57-10.47-13.59-11.68-17.45-11.68v-23.77h64.99c14.03,0,26.38,7.24,36.72,21.53,10.66,14.77,18.4,35.79,25.88,56.11,5.66,15.36,11.49,31.21,18.17,43.03l3.3,5.84-3.3,5.84c-4.36,7.72-17.61,31.2-42.85,31.2Zm-64.63-139.79c9.86,14.61,17.21,34.55,24.32,53.87,10.74,29.17,22.89,62.15,40.32,62.15,4.3,0,10.73-1.54,18.82-13.68-6.14-12.24-11.36-26.43-16.44-40.22-6.94-18.85-14.11-38.32-22.85-50.43-7.57-10.47-13.59-11.68-17.45-11.68h-26.71Z"/><path class="cls-1" d="M719.33,312.01c-25.23,0-38.49-23.48-42.85-31.2l-3.3-5.84,3.3-5.84c6.68-11.82,12.51-27.67,18.16-42.99,7.49-20.36,15.23-41.37,25.89-56.14,10.34-14.3,22.69-21.54,36.72-21.54h64.99v23.77c-3.86,0-9.87,1.21-17.45,11.69-8.74,12.11-15.91,31.58-22.84,50.4-6.55,17.78-13.29,36.1-21.95,50.2-11.36,18.5-24.66,27.5-40.67,27.5Zm-18.82-37.45c8.1,12.14,14.52,13.68,18.82,13.68,17.43,0,29.57-32.98,40.29-62.08,7.14-19.38,14.48-39.33,24.34-53.94h-26.71c-3.86,0-9.87,1.21-17.45,11.69-8.74,12.11-15.91,31.58-22.84,50.4-5.09,13.82-10.32,28.01-16.45,40.25Z"/></g></svg>