<?xml version="1.0" encoding="UTF-8"?><svg id="Layer_1" xmlns="http://www.w3.org/2000/svg" viewBox="0 0 1080 1080"><defs><style>.cls-1{fill:#2ad5c1;}</style></defs><g><path class="cls-1" d="M449.35,600.83c-84.39,0-123.09-105.09-160.51-206.73-19.74-53.63-40.09-108.9-65.71-144.39-19.15-26.48-38.49-38.82-60.85-38.82v-36.26h181.29c34.52,0,64.04,17.61,90.24,53.85,28.53,39.53,49.75,97.18,70.28,152.93,15.98,43.38,32.47,88.17,51.69,122.21l5.03,8.91-5.03,8.91c-30.16,53.42-64.97,79.39-106.43,79.39ZM238.2,210.89c4.88,5.28,9.66,11.14,14.32,17.59,28.53,39.53,49.75,97.18,70.28,152.93,33.19,90.13,67.45,183.17,126.55,183.17,25.62,0,47.96-16.7,69.82-52.38-18.42-34.95-33.99-77.21-49.07-118.19-19.71-53.53-40.06-108.81-65.67-144.29-19.15-26.48-38.49-38.82-60.85-38.82h-105.37Z"/><path class="cls-1" d="M630.65,600.84c-41.46,0-76.28-25.97-106.43-79.39l-5.03-8.91,5.03-8.91c19.22-34.04,35.72-78.82,51.67-122.14,20.56-55.84,41.78-113.48,70.3-152.98,26.21-36.25,55.73-53.86,90.25-53.86h181.29v36.26c-22.36,0-41.7,12.34-60.86,38.84-25.6,35.46-45.95,90.73-65.62,144.17-37.5,101.83-76.2,206.93-160.59,206.93Zm-69.82-88.63c21.86,35.68,44.2,52.38,69.82,52.38,59.1,0,93.36-93.04,126.49-183.01,20.59-55.93,41.81-113.57,70.33-153.07,4.67-6.46,9.44-12.32,14.33-17.6h-105.37c-22.36,0-41.7,12.34-60.86,38.84-25.6,35.46-45.95,90.73-65.62,144.17-15.13,41.08-30.69,83.35-49.12,118.3Z"/></g><g><path class="cls-1" d="M248.15,687.31h38.83l27.83,116.83h1.4l30.7-116.83h33.25l30.62,117.07h1.48l27.83-117.07h38.83l-48.11,168.14h-34.65l-32.02-109.93h-1.31l-31.94,109.93h-34.64l-48.11-168.14Z"/><path class="cls-1" d="M495.88,695.36c0-9.69,8.54-17.65,18.88-17.65s18.96,7.96,18.96,17.65-8.54,17.73-18.96,17.73-18.88-7.96-18.88-17.73Zm1.31,33.99h34.97v126.1h-34.97v-126.1Z"/><path class="cls-1" d="M595.04,855.45h-34.97v-126.1h33.33v22.25h1.48c5.67-14.7,19.21-23.89,37.93-23.89,26.27,0,43.51,18.06,43.51,47.45v80.29h-34.97v-74.05c.08-15.43-8.37-24.63-22.41-24.63s-23.81,9.52-23.89,25.78v72.9Z"/><path class="cls-1" d="M702.98,870.23l32.35-4.35c2.87,7.64,10.67,14.37,26.11,14.37s26.27-6.73,26.27-24.05v-23.07h-1.48c-4.6,10.43-15.84,20.52-35.96,20.52-28.41,0-51.15-19.54-51.15-61.49s23.4-64.45,51.07-64.45c21.1,0,31.36,12.56,36.04,22.82h1.32v-21.18h34.73v127.33c0,32.26-25.61,48.68-61.66,48.68-33.99,0-53.44-15.27-57.63-35.14Zm84.89-78.24c0-22.08-9.52-36.45-26.52-36.45s-26.52,15.03-26.52,36.45,9.36,35.39,26.52,35.39,26.52-13.14,26.52-35.39Z"/></g></svg>