<?xml version="1.0" encoding="UTF-8"?><svg id="Layer_1" xmlns="http://www.w3.org/2000/svg" viewBox="0 0 791.73 200"><defs><style>.cls-1{fill:#2ad5c1;}.cls-2{fill:none;stroke:#2ad5c1;stroke-miterlimit:10;stroke-width:21.37px;}</style></defs><g><path class="cls-2" d="M121.74,122.4c-7.57,13.42-16.7,22.62-29.22,22.62-23.13,0-34.69-31.42-46.26-62.84-6.6-17.91-13.18-35.82-21.91-47.91C17.76,25.16,9.96,19.34,0,19.34H58.43c9.96,0,17.76,5.82,24.35,14.94,8.73,12.09,15.32,29.99,21.91,47.91,5.31,14.42,10.62,28.84,17.05,40.22Z"/><path class="cls-2" d="M121.74,122.4c7.57,13.42,16.7,22.62,29.22,22.62,23.13,0,34.69-31.42,46.26-62.84,6.6-17.91,13.18-35.82,21.91-47.91,6.6-9.12,14.4-14.94,24.35-14.94h-58.43c-9.96,0-17.76,5.82-24.35,14.94-8.73,12.09-15.32,29.99-21.91,47.91-5.31,14.42-10.62,28.84-17.05,40.22Z"/></g><g><path class="cls-1" d="M287.37,8.44h34.11l24.45,102.63h1.23l26.97-102.63h29.21l26.9,102.85h1.3l24.45-102.85h34.11l-42.26,147.71h-30.44l-28.13-96.57h-1.15l-28.06,96.57h-30.44L287.37,8.44Z"/><path class="cls-1" d="M505,15.51C505,7,512.5,0,521.59,0s16.66,7,16.66,15.51-7.5,15.58-16.66,15.58-16.59-7-16.59-15.58Zm1.15,29.86h30.73v110.78h-30.73V45.37Z"/><path class="cls-1" d="M592.11,156.15h-30.73V45.37h29.28v19.55h1.3c4.98-12.91,16.88-20.99,33.32-20.99,23.08,0,38.23,15.87,38.23,41.69v70.54h-30.73V91.09c.07-13.56-7.36-21.64-19.69-21.64s-20.91,8.37-20.99,22.65v64.05Z"/><path class="cls-1" d="M686.94,169.13l28.42-3.82c2.52,6.71,9.38,12.62,22.94,12.62s23.08-5.92,23.08-21.13v-20.27h-1.3c-4.04,9.16-13.92,18.03-31.59,18.03-24.95,0-44.93-17.17-44.93-54.02s20.56-56.62,44.86-56.62c18.53,0,27.55,11.04,31.66,20.05h1.16v-18.61h30.51v111.86c0,28.34-22.5,42.77-54.17,42.77-29.86,0-46.95-13.42-50.63-30.87Zm74.58-68.74c0-19.4-8.37-32.02-23.3-32.02s-23.3,13.2-23.3,32.02,8.22,31.09,23.3,31.09,23.3-11.54,23.3-31.09Z"/></g></svg>