<?xml version="1.0" encoding="UTF-8"?><svg id="Layer_1" xmlns="http://www.w3.org/2000/svg" viewBox="0 0 1080 1080"><defs><style>.cls-1{fill:#2ad5c1;}</style></defs><path class="cls-1" d="M430.27,797.96c-102.16,0-149-127.22-194.31-250.25-23.9-64.92-48.53-131.83-79.54-174.79-23.19-32.06-46.6-47-73.67-47v-43.89h219.46c41.79,0,77.52,21.32,109.24,65.18,34.54,47.85,60.23,117.64,85.08,185.12,19.34,52.52,39.31,106.73,62.57,147.94l6.09,10.79-6.09,10.79c-36.5,64.67-78.65,96.1-128.84,96.1ZM174.66,325.93c5.91,6.39,11.69,13.48,17.34,21.29,34.54,47.85,60.23,117.64,85.08,185.12,40.18,109.11,81.65,221.73,153.19,221.73,31.02,0,58.06-20.21,84.52-63.4-22.3-42.31-41.14-93.47-59.41-143.07-23.86-64.8-48.49-131.71-79.5-174.67-23.19-32.06-46.6-47-73.67-47h-127.55Z"/><path class="cls-1" d="M649.73,797.96c-50.19,0-92.34-31.44-128.84-96.1l-6.09-10.79,6.09-10.79c23.27-41.21,43.24-95.42,62.54-147.85,24.89-67.6,50.57-137.37,85.1-185.19,31.73-43.88,67.47-65.2,109.25-65.2h219.46v43.89c-27.07,0-50.48,14.94-73.68,47.01-30.99,42.93-55.62,109.83-79.44,174.52-45.39,123.27-92.24,250.5-194.4,250.5Zm-84.52-107.29c26.46,43.19,53.5,63.4,84.52,63.4,71.54,0,113.02-112.62,153.12-221.54,24.93-67.71,50.61-137.48,85.14-185.3,5.65-7.82,11.43-14.92,17.35-21.31h-127.56c-27.07,0-50.48,14.94-73.68,47.01-30.99,42.93-55.62,109.83-79.44,174.52-18.31,49.73-37.15,100.89-59.46,143.21Z"/></svg>