<?xml version="1.0" encoding="UTF-8"?><svg id="Layer_1" xmlns="http://www.w3.org/2000/svg" viewBox="0 0 200 200"><defs><style>.cls-1{fill:#2ad5c1;}.cls-2{fill:none;stroke:#000;stroke-miterlimit:10;stroke-width:8px;}</style></defs><rect class="cls-1" y="0" width="200" height="200"/><g><path class="cls-2" d="M100,120.81c-3.92,6.94-8.64,11.7-15.11,11.7-11.97,0-17.95-16.25-23.93-32.51-3.41-9.27-6.82-18.53-11.34-24.78-3.41-4.72-7.45-7.73-12.6-7.73h30.23c5.15,0,9.19,3.01,12.6,7.73,4.52,6.26,7.92,15.52,11.34,24.78,2.75,7.46,5.49,14.92,8.82,20.81Z"/><path class="cls-2" d="M100,120.81c3.92,6.94,8.64,11.7,15.11,11.7,11.97,0,17.95-16.25,23.93-32.51,3.41-9.27,6.82-18.53,11.34-24.78,3.41-4.72,7.45-7.73,12.6-7.73h-30.23c-5.15,0-9.19,3.01-12.6,7.73-4.52,6.26-7.92,15.52-11.34,24.78-2.75,7.46-5.49,14.92-8.82,20.81Z"/></g></svg>