<?xml version="1.0" encoding="UTF-8"?><svg id="Layer_1" xmlns="http://www.w3.org/2000/svg" viewBox="0 0 72 72"><defs><style>.cls-1{fill:none;stroke:#2ad5c1;stroke-miterlimit:10;stroke-width:5.71px;}</style></defs><path class="cls-1" d="M36,44.47c-1.59,2.83-3.52,4.76-6.15,4.76-4.87,0-7.31-6.62-9.74-13.23-1.39-3.77-2.78-7.54-4.61-10.09-1.39-1.92-3.03-3.15-5.13-3.15h12.3c2.1,0,3.74,1.22,5.13,3.15,1.84,2.55,3.23,6.32,4.61,10.09,1.12,3.04,2.24,6.07,3.59,8.47Z"/><path class="cls-1" d="M36,44.47c1.59,2.83,3.52,4.76,6.15,4.76,4.87,0,7.31-6.62,9.74-13.23,1.39-3.77,2.78-7.54,4.61-10.09,1.39-1.92,3.03-3.15,5.13-3.15h-12.3c-2.1,0-3.74,1.22-5.13,3.15-1.84,2.55-3.23,6.32-4.61,10.09-1.12,3.04-2.24,6.07-3.59,8.47Z"/></svg>