<?xml version="1.0" encoding="UTF-8"?><svg id="Layer_1" xmlns="http://www.w3.org/2000/svg" viewBox="0 0 1080 540"><defs><style>.cls-1{fill:#2ad5c1;}</style></defs><rect class="cls-1" width="1080" height="540"/><g><path d="M164.36,150.61h47.3l33.9,142.3h1.7l37.4-142.3h40.5l37.3,142.6h1.8l33.9-142.6h47.3l-58.6,204.8h-42.2l-39-133.9h-1.6l-38.9,133.9h-42.2l-58.6-204.8Z"/><path d="M466.1,160.41c0-11.8,10.4-21.5,23-21.5s23.1,9.7,23.1,21.5-10.4,21.6-23.1,21.6-23-9.7-23-21.6Zm1.6,41.4h42.6v153.6h-42.6V201.81Z"/><path d="M586.88,355.4h-42.6V201.81h40.6v27.1h1.8c6.9-17.9,23.4-29.1,46.2-29.1,32,0,53,22,53,57.8v97.8h-42.6v-90.2c.1-18.8-10.2-30-27.3-30s-29,11.6-29.1,31.4v88.8Z"/><path d="M718.35,373.4l39.4-5.3c3.5,9.3,13,17.5,31.8,17.5s32-8.2,32-29.3v-28.1h-1.8c-5.6,12.7-19.3,25-43.8,25-34.6,0-62.3-23.8-62.3-74.9s28.5-78.5,62.2-78.5c25.7,0,38.2,15.3,43.9,27.8h1.6v-25.8h42.3v155.1c0,39.3-31.2,59.3-75.1,59.3-41.4,0-65.1-18.6-70.2-42.8Zm103.4-95.3c0-26.9-11.6-44.4-32.3-44.4s-32.3,18.3-32.3,44.4,11.4,43.1,32.3,43.1,32.3-16,32.3-43.1Z"/></g></svg>