<?xml version="1.0" encoding="UTF-8"?><svg id="Layer_1" xmlns="http://www.w3.org/2000/svg" viewBox="0 0 1080 540"><defs><style>.cls-1{fill:#2ad5c1;}</style></defs><path class="cls-1" d="M164.51,150.66h47.28l33.89,142.24h1.7l37.38-142.24h40.48l37.28,142.54h1.8l33.89-142.54h47.28l-58.57,204.71h-42.18l-38.98-133.84h-1.6l-38.88,133.84h-42.18l-58.57-204.71Z"/><path class="cls-1" d="M466.12,160.46c0-11.8,10.39-21.49,22.99-21.49s23.09,9.7,23.09,21.49-10.39,21.59-23.09,21.59-22.99-9.7-22.99-21.59Zm1.6,41.38h42.58v153.53h-42.58V201.84Z"/><path class="cls-1" d="M586.85,355.37h-42.58V201.84h40.58v27.09h1.8c6.9-17.89,23.39-29.09,46.18-29.09,31.98,0,52.98,21.99,52.98,57.77v97.76h-42.58v-90.16c.1-18.79-10.19-29.99-27.29-29.99s-28.99,11.6-29.09,31.39v88.76Z"/><path class="cls-1" d="M718.26,373.36l39.38-5.3c3.5,9.3,12.99,17.49,31.79,17.49s31.99-8.2,31.99-29.29v-28.09h-1.8c-5.6,12.69-19.29,24.99-43.78,24.99-34.58,0-62.27-23.79-62.27-74.87s28.49-78.46,62.17-78.46c25.69,0,38.18,15.29,43.88,27.79h1.6v-25.79h42.28v155.03c0,39.28-31.19,59.27-75.07,59.27-41.38,0-65.07-18.59-70.17-42.78Zm103.35-95.26c0-26.89-11.6-44.38-32.29-44.38s-32.28,18.29-32.28,44.38,11.39,43.08,32.28,43.08,32.29-15.99,32.29-43.08Z"/></svg>